<?xml version="1.0" encoding="UTF-8"?>
<svg width="96px" height="28px" viewBox="0 0 96 28" version="1.1" xmlns="http://www.w3.org/2000/svg" xmlns:xlink="http://www.w3.org/1999/xlink">
    <!-- Generator: Sketch 47 (45396) - http://www.bohemiancoding.com/sketch -->
    <title>np_fast-forward_359276_000000</title>
    <desc>Created with Sketch.</desc>
    <defs></defs>
    <g id="BUILD-THIS" stroke="none" stroke-width="1" fill="none" fill-rule="evenodd">
        <g id="np_fast-forward_359276_000000" fill-rule="nonzero" fill="#000000">
            <path d="M95,12.398 L80,0.398 C79.10156,-0.30122 77.8984,0.59722 77.6992,1.9996 L76.89842,8.8004 L74.00002,6.3981 L66.50002,0.3981 C65.60158,-0.30112 64.39842,0.59732 64.19922,1.9997 L63.39844,8.8005 L60.50004,6.4021 L53.00004,0.4021 C52.1016,-0.29712 50.89844,0.60132 50.69924,2.0037 L47.69924,26.0037 C47.50002,27.4021 48.59768,28.2029 49.59764,27.6053 L58.59764,21.6053 L62.09764,19.2069 L61.30076,25.9999 C61.10154,27.3983 62.1992,28.1991 63.19916,27.6015 L72.19916,21.6015 L75.59756,19.3007 L74.69912,25.9999 C74.4999,27.3983 75.59756,28.1991 76.59752,27.6015 L94.59752,15.6015 C95.60142,14.89838 95.80062,13.1015 94.99986,12.3984 L95,12.398 Z" id="Shape"></path>
            <path d="M44.898,6.898 L30.199,6.898 C29.199,6.898 28.3982,6.09722 28.3982,5.0972 C28.3982,4.09718 29.19898,3.2964 30.199,3.2964 L44.898,3.2964 C45.898,3.2964 46.6988,4.09718 46.6988,5.0972 C46.6988,6.1011 45.89802,6.898 44.898,6.898 Z" id="Shape"></path>
            <path d="M43.199,15.801 L17.101,15.801 C16.101,15.801 15.3002,15.00022 15.3002,14.0002 C15.3002,13.00018 16.10098,12.1994 17.101,12.1994 L43.203,12.1994 C44.203,12.1994 45.0038,13.00018 45.0038,14.0002 C44.999894,15.0002 44.19911,15.801 43.1991,15.801 L43.199,15.801 Z" id="Shape"></path>
            <path d="M39.801,24.699 L2.301,24.699 C1.301,24.699 0.5002,23.89822 0.5002,22.8982 C0.5002,21.89818 1.30098,21.0974 2.301,21.0974 L39.801,21.0974 C40.801,21.0974 41.6018,21.89818 41.6018,22.8982 C41.6018,23.89822 40.80102,24.699 39.801,24.699 Z" id="Shape"></path>
        </g>
    </g>
</svg>
